<?xml version="1.0" standalone="no"?>
<!DOCTYPE svg PUBLIC "-//W3C//DTD SVG 20010904//EN"
 "http://www.w3.org/TR/2001/REC-SVG-20010904/DTD/svg10.dtd">
<svg version="1.0" xmlns="http://www.w3.org/2000/svg"
 width="966.000000pt" height="966.000000pt" viewBox="0 0 966.000000 966.000000"
 preserveAspectRatio="xMidYMid meet">

<g transform="translate(0.000000,966.000000) scale(0.100000,-0.100000)"
fill="#000000" stroke="none">
<path d="M4495 9204 c-133 -11 -387 -48 -540 -79 -1305 -262 -2442 -1132
-3041 -2326 -322 -644 -478 -1341 -461 -2069 11 -465 76 -844 217 -1270 218
-659 550 -1203 1035 -1699 698 -712 1569 -1145 2585 -1283 146 -20 208 -22
535 -23 397 0 508 8 795 61 1635 299 2964 1499 3425 3093 303 1048 205 2176
-276 3151 -346 703 -855 1285 -1499 1714 -582 389 -1212 622 -1920 712 -120
15 -728 28 -855 18z m810 -458 c101 -228 118 -293 118 -456 0 -113 -4 -151
-25 -231 -46 -170 -130 -310 -265 -440 -93 -90 -201 -158 -443 -279 -310 -155
-409 -226 -488 -354 -82 -130 -102 -205 -132 -486 -12 -107 -23 -204 -26 -216
-5 -20 -14 -21 -171 -27 -92 -4 -232 -7 -314 -7 -125 0 -148 2 -153 16 -20 51
9 356 50 544 62 275 168 474 344 644 143 137 253 202 630 371 287 128 384 189
511 322 166 174 232 320 269 592 11 84 20 156 20 159 0 14 14 -14 75 -152z
m676 -1441 c64 -134 82 -208 77 -315 -5 -107 -41 -194 -103 -248 -23 -20 -100
-68 -170 -107 -191 -104 -242 -157 -265 -277 -6 -29 -13 -63 -16 -76 l-4 -22
-318 2 -317 3 -3 40 c-5 61 16 190 49 290 64 201 178 299 475 408 177 66 240
101 311 174 83 86 111 145 118 253 3 47 8 100 11 119 6 35 6 35 56 -55 28 -49
72 -134 99 -189z m612 -1379 c66 -9 118 -37 156 -83 50 -60 61 -117 64 -321 1
-99 5 -184 10 -188 4 -4 86 1 183 10 198 21 278 17 422 -20 185 -46 367 -151
521 -299 192 -185 291 -394 321 -680 34 -309 -69 -615 -283 -841 -229 -242
-504 -364 -822 -364 -190 0 -309 31 -505 129 l-118 60 -15 -23 c-8 -12 -37
-73 -65 -135 -59 -133 -94 -192 -182 -309 -173 -233 -421 -417 -632 -471 -177
-45 -534 -56 -1428 -42 -483 8 -668 14 -735 25 -240 40 -404 126 -581 304
-253 256 -412 556 -519 982 -44 177 -76 353 -124 695 -49 343 -58 467 -66 895
-8 426 4 529 72 597 40 39 139 72 246 82 95 8 4015 5 4080 -3z"/>
<path d="M4782 4663 l3 -184 248 -137 c136 -75 247 -138 247 -142 0 -3 -111
-67 -247 -142 l-248 -136 -3 -187 -2 -188 22 15 c13 8 215 119 451 248 l427
233 0 156 0 156 -450 247 -450 246 2 -185z"/>
<path d="M4173 4597 l-443 -242 0 -155 0 -155 223 -122 c122 -67 324 -178 450
-246 l227 -125 0 183 0 183 -250 137 c-137 76 -250 140 -250 144 0 3 112 67
248 141 l247 135 3 183 c1 100 -1 182 -5 182 -5 0 -207 -110 -450 -243z"/>
<path d="M7035 4620 c-112 -37 -205 -130 -247 -247 -71 -201 5 -384 200 -480
73 -37 80 -38 181 -38 93 0 113 3 161 26 107 50 174 132 216 264 29 91 30 144
5 217 -39 114 -127 210 -229 249 -82 31 -208 35 -287 9z"/>
</g>
</svg>
